<?xml version="1.0" standalone="no"?>
<!DOCTYPE svg PUBLIC "-//W3C//DTD SVG 20010904//EN"
 "http://www.w3.org/TR/2001/REC-SVG-20010904/DTD/svg10.dtd">
<svg version="1.0" xmlns="http://www.w3.org/2000/svg"
 width="287.000000pt" height="287.000000pt" viewBox="0 0 287.000000 287.000000"
 preserveAspectRatio="xMidYMid meet">
<metadata>
Created by potrace 1.14, written by Peter Selinger 2001-2017
</metadata>
<g transform="translate(0.000000,287.000000) scale(0.100000,-0.100000)"
fill="#000000" stroke="none">
<path d="M763 1988 c-4 -7 -8 -15 -9 -18 -7 -35 -68 -121 -97 -137 -24 -13
-92 -26 -147 -27 -19 -1 -39 -4 -45 -7 -5 -3 -37 -5 -70 -3 -44 1 -68 -3 -90
-17 -40 -24 -191 -182 -200 -208 -3 -12 -11 -21 -16 -21 -6 0 -8 -4 -4 -9 3
-5 -6 -22 -20 -37 -14 -15 -26 -31 -26 -35 -1 -5 -2 -12 -3 -16 -31 -122 -39
-280 -17 -307 7 -9 10 -16 6 -16 -4 0 0 -11 9 -25 9 -13 16 -31 16 -39 0 -20
34 -59 56 -63 10 -2 37 -5 59 -7 22 -2 52 -8 66 -14 35 -14 99 -71 99 -87 0
-20 79 -25 85 -5 7 22 84 48 115 40 14 -4 40 -1 58 6 17 7 32 11 32 9 0 -3 21
7 46 20 26 14 53 25 59 25 7 0 15 7 19 15 3 8 12 15 19 15 26 0 41 31 43 89 3
65 -9 96 -26 71 -5 -8 -10 -25 -10 -37 0 -13 -4 -23 -10 -23 -10 0 -14 23 -10
72 1 22 -2 27 -14 22 -9 -3 -16 -16 -17 -28 0 -18 -1 -19 -8 -3 -6 17 -8 16
-30 -6 -19 -21 -31 -25 -82 -24 -56 0 -62 -2 -93 -37 l-34 -37 -35 17 c-34 16
-37 16 -70 -3 -31 -19 -37 -19 -64 -6 -72 34 -156 143 -156 201 0 26 7 40 31
58 28 23 46 58 57 114 2 12 11 32 20 44 8 11 32 45 52 74 20 28 41 52 47 53 6
0 34 0 62 -1 33 -1 73 8 120 25 38 15 74 28 79 29 6 2 18 6 27 10 9 4 21 6 25
3 4 -3 18 -1 30 4 20 7 22 13 17 45 -5 35 -5 36 20 32 39 -8 42 1 50 155 3 64
-3 82 -21 55z m-33 -908 c0 -5 -2 -10 -4 -10 -3 0 -8 5 -11 10 -3 6 -1 10 4
10 6 0 11 -4 11 -10z m22 -22 c-7 -7 -12 -8 -12 -2 0 14 12 26 19 19 2 -3 -1
-11 -7 -17z m-240 -10 c-12 -12 -35 -1 -27 12 3 5 13 6 21 3 10 -4 12 -9 6
-15z"/>
<path d="M1217 1876 c-39 -24 -96 -84 -129 -136 -68 -107 -111 -184 -111 -194
1 -6 3 -26 6 -44 4 -27 0 -35 -24 -49 -26 -16 -34 -26 -26 -36 1 -2 -3 -10 -9
-18 -7 -8 -11 -25 -9 -39 1 -14 3 -30 4 -37 2 -22 32 -43 60 -43 28 0 28 -1
35 -77 4 -43 8 -90 10 -105 3 -22 -2 -29 -28 -38 -71 -27 -73 -29 -36 -30 36
-2 83 0 87 4 8 8 18 135 16 214 -2 99 3 117 11 41 3 -24 10 -89 16 -143 11
-110 12 -108 -52 -128 -48 -14 -41 -25 14 -22 65 3 65 3 72 21 8 20 19 109 18
143 -3 128 -12 282 -17 290 -6 10 58 155 74 164 10 7 16 -14 12 -38 -1 -5 9
-21 22 -35 13 -14 35 -51 49 -81 14 -30 41 -86 59 -125 18 -38 34 -81 35 -94
2 -13 9 -28 15 -32 10 -6 10 -11 -2 -25 -8 -11 -9 -15 -2 -10 10 5 12 -2 9
-26 -2 -18 -4 -41 -5 -50 0 -9 -8 -24 -17 -33 -9 -9 -14 -19 -11 -22 12 -11
54 7 65 29 8 17 11 19 11 6 1 -9 -3 -20 -9 -23 -15 -9 -12 -35 3 -35 8 0 23 8
33 18 21 18 84 111 84 122 0 4 -11 17 -24 29 -24 22 -42 72 -88 236 -26 95
-56 215 -62 245 -2 14 -5 26 -7 28 -2 3 -4 11 -13 62 -5 25 -15 57 -22 72 -23
45 -81 67 -117 44z m233 -736 c0 -5 -2 -10 -4 -10 -3 0 -8 5 -11 10 -3 6 -1
10 4 10 6 0 11 -4 11 -10z m-23 -32 c-3 -8 -6 -5 -6 6 -1 11 2 17 5 13 3 -3 4
-12 1 -19z"/>
<path d="M1809 1859 l-37 -18 4 -77 c4 -62 1 -80 -12 -95 -10 -11 -22 -19 -27
-19 -6 0 -25 -15 -43 -34 -40 -42 -51 -102 -35 -195 6 -36 11 -110 12 -163 2
-99 23 -202 46 -226 7 -7 13 -18 13 -23 0 -6 5 -7 10 -4 6 3 10 1 10 -4 0 -26
30 -8 38 22 7 25 5 35 -7 44 -13 10 0 12 67 11 46 -1 87 2 90 8 6 8 56 11 72
5 47 -19 256 -12 270 8 9 14 46 5 70 -17 13 -12 30 -22 38 -22 21 0 157 143
172 181 11 25 11 32 0 39 -14 9 -50 2 -50 -10 0 -5 -24 -21 -54 -35 -52 -25
-129 -39 -151 -26 -12 7 -24 9 -88 15 -66 7 -87 15 -87 32 0 9 -7 14 -17 12
-10 -1 -23 1 -30 5 -6 4 -14 3 -18 -2 -7 -12 -85 26 -90 43 -2 6 -6 27 -9 46
-3 19 -9 53 -15 75 -5 22 -12 65 -15 95 -3 44 -10 59 -33 80 -33 29 -32 36 6
120 22 50 5 112 -39 135 -22 11 -30 10 -61 -6z m87 -483 c5 -38 3 -46 -10 -46
-12 0 -16 9 -16 34 0 35 9 70 17 63 2 -3 6 -25 9 -51z"/>
<path d="M2702 1873 c4 -14 -13 -53 -23 -53 -5 0 -3 -13 5 -29 9 -16 13 -30
11 -33 -10 -10 -12 -84 -2 -96 16 -20 16 -121 1 -151 -19 -35 -18 -39 12 -83
20 -28 26 -49 25 -81 -1 -23 -3 -56 -3 -72 -1 -24 -8 -33 -40 -48 -21 -10 -35
-23 -32 -29 4 -6 -6 -21 -22 -34 -16 -13 -23 -23 -15 -24 10 0 11 -3 3 -13 -6
-7 -9 -25 -7 -39 3 -15 1 -30 -5 -33 -5 -3 -10 -13 -10 -22 0 -11 4 -13 13 -6
6 6 20 9 29 8 26 -5 38 52 24 109 -7 27 -6 27 18 11 14 -9 37 -15 52 -13 24 3
28 -1 29 -23 1 -14 5 -34 8 -43 4 -11 1 -16 -11 -17 -39 -2 -62 -6 -69 -12 -7
-7 25 -11 65 -7 42 3 22 -18 -23 -25 -25 -3 -43 -10 -41 -14 6 -9 104 -7 113
3 15 15 22 86 12 113 -5 13 -5 23 0 23 4 0 7 11 6 25 -2 14 2 25 8 25 7 0 4 5
-5 11 -25 14 -22 27 12 59 25 23 29 35 28 74 0 25 -4 44 -8 41 -7 -5 -23 32
-21 48 1 4 -3 7 -8 7 -4 0 -7 11 -6 25 2 14 -1 25 -6 25 -6 0 -7 6 -1 17 6 10
6 30 0 52 -12 47 -49 121 -60 121 -5 0 -6 6 -1 13 10 16 13 37 4 37 -4 0 -7
18 -7 40 0 22 3 40 7 40 4 0 1 12 -7 28 -7 15 -14 33 -14 40 0 6 -9 12 -20 12
-11 0 -19 -3 -18 -7z"/>
</g>
</svg>
